<svg xmlns="http://www.w3.org/2000/svg" viewBox="0 0 512 512">
  <rect width="512" height="512" rx="96" fill="#37474f"/>
  <g transform="translate(136,190)">
    <rect width="60" height="60" rx="4" fill="#78909c" stroke="#546e7a" stroke-width="2"/>
    <rect x="65" width="60" height="60" rx="4" fill="#78909c" stroke="#546e7a" stroke-width="2"/>
    <rect x="130" width="60" height="60" rx="4" fill="#78909c" stroke="#546e7a" stroke-width="2"/>
    <rect x="195" width="60" height="60" rx="4" fill="#78909c" stroke="#546e7a" stroke-width="2"/>
    <rect y="65" width="60" height="60" rx="4" fill="#cfd8dc"/><rect x="65" y="65" width="60" height="60" rx="4" fill="#cfd8dc"/><rect x="130" y="65" width="60" height="60" rx="4" fill="#78909c" stroke="#546e7a" stroke-width="2"/>
    <rect x="195" y="65" width="60" height="60" rx="4" fill="#cfd8dc"/>
    <rect y="130" width="60" height="60" rx="4" fill="#cfd8dc"/><rect x="65" y="130" width="60" height="60" rx="4" fill="#cfd8dc"/><rect x="130" y="130" width="60" height="60" rx="4" fill="#cfd8dc"/><rect x="195" y="130" width="60" height="60" rx="4" fill="#78909c" stroke="#546e7a" stroke-width="2"/>
  </g>
  <circle cx="296" cy="220" r="16" fill="#212121"/>
  <text x="191" y="315" text-anchor="middle" font-family="system-ui,sans-serif" font-size="28" font-weight="700" fill="#1565c0">1</text>
  <text x="321" y="315" text-anchor="middle" font-family="system-ui,sans-serif" font-size="28" font-weight="700" fill="#c62828">3</text>
  <text x="256" y="150" text-anchor="middle" font-family="system-ui,sans-serif" font-size="36" font-weight="700" fill="white" letter-spacing="2">MINESWEEPER</text>
</svg>
