<svg xmlns="http://www.w3.org/2000/svg" viewBox="0 0 512 512">
  <rect width="512" height="512" rx="96" fill="#0d47a1"/>
  <g transform="translate(256,290)">
    <rect x="-150" y="-50" width="85" height="85" rx="14" fill="#fff"/>
    <rect x="-48" y="-50" width="85" height="85" rx="14" fill="#fff"/>
    <rect x="55" y="-50" width="85" height="85" rx="14" fill="#fff"/>
  </g>
  <g fill="#0d47a1">
    <circle cx="151" cy="270" r="8"/><circle cx="131" cy="250" r="8"/><circle cx="171" cy="250" r="8"/><circle cx="131" cy="290" r="8"/><circle cx="171" cy="290" r="8"/><circle cx="151" cy="310" r="8"/>
    <circle cx="253" cy="260" r="8"/><circle cx="253" cy="300" r="8"/><circle cx="233" cy="280" r="8"/><circle cx="273" cy="280" r="8"/><circle cx="253" cy="280" r="8"/>
    <circle cx="364" cy="260" r="8"/><circle cx="364" cy="280" r="8"/><circle cx="364" cy="300" r="8"/><circle cx="344" cy="280" r="8"/>
  </g>
  <text x="256" y="180" text-anchor="middle" font-family="system-ui,sans-serif" font-size="32" font-weight="700" fill="white" letter-spacing="2">SHIP CAPTAIN CREW</text>
</svg>
